{
	"asset":{
		"generator":"Khronos glTF Blender I/O v4.3.47",
		"version":"2.0"
	},
	"scene":0,
	"scenes":[
		{
			"name":"Scene",
			"nodes":[
				0,
				1,
				2,
				3,
				4,
				5,
				6,
				7,
				8,
				9,
				10
			]
		}
	],
	"nodes":[
		{
			"mesh":0,
			"name":"Life",
			"translation":[
				-2.5,
				0,
				0
			]
		},
		{
			"mesh":1,
			"name":"Bonus",
			"scale":[
				0.5400000214576721,
				0.5400000214576721,
				0.5400000214576721
			],
			"translation":[
				-4,
				0,
				0
			]
		},
		{
			"mesh":2,
			"name":"Chicken"
		},
		{
			"mesh":3,
			"name":"TreeTrunk",
			"translation":[
				3,
				0,
				0
			]
		},
		{
			"mesh":4,
			"name":"TreeFoliage",
			"rotation":[
				0,
				0.9997586011886597,
				0,
				0.021971527487039566
			],
			"scale":[
				2.2367589473724365,
				2.2367587089538574,
				2.2367589473724365
			],
			"translation":[
				3,
				3.5,
				0
			]
		},
		{
			"mesh":5,
			"name":"Bush",
			"translation":[
				-6,
				0,
				0
			]
		},
		{
			"mesh":6,
			"name":"Road3",
			"translation":[
				-0.5,
				0,
				-3.5
			]
		},
		{
			"mesh":7,
			"name":"Road5",
			"translation":[
				-0.6000000238418579,
				0,
				-5.900000095367432
			]
		},
		{
			"mesh":8,
			"name":"Grass",
			"translation":[
				-8.006187438964844,
				0.052977304905653,
				-4.943413734436035
			]
		},
		{
			"mesh":9,
			"name":"Rock",
			"translation":[
				-4.5,
				0.5,
				-2.5
			]
		},
		{
			"mesh":10,
			"name":"Background",
			"rotation":[
				0.7071068286895752,
				0,
				0,
				0.7071068286895752
			],
			"scale":[
				5.170903205871582,
				5.170903205871582,
				5.170903205871582
			],
			"translation":[
				0,
				5,
				-9
			]
		}
	],
	"materials":[
		{
			"doubleSided":true,
			"name":"Heart",
			"pbrMetallicRoughness":{
				"baseColorFactor":[
					0.8005210161209106,
					0,
					0.19233381748199463,
					1
				],
				"metallicFactor":0
			}
		},
		{
			"doubleSided":true,
			"emissiveFactor":[
				0.5999999642372131,
				0.20449398133194485,
				0
			],
			"name":"Star",
			"pbrMetallicRoughness":{
				"baseColorFactor":[
					0.8002588152885437,
					0.40009331703186035,
					0,
					1
				],
				"metallicFactor":0
			}
		},
		{
			"doubleSided":true,
			"name":"Chicken",
			"pbrMetallicRoughness":{
				"baseColorTexture":{
					"index":0
				},
				"metallicFactor":0,
				"roughnessFactor":0.5
			}
		},
		{
			"doubleSided":true,
			"name":"Wood",
			"pbrMetallicRoughness":{
				"baseColorFactor":[
					0.19370102882385254,
					0.02873055450618267,
					0.007317038252949715,
					1
				],
				"metallicFactor":0
			}
		},
		{
			"doubleSided":true,
			"name":"Grass",
			"pbrMetallicRoughness":{
				"baseColorFactor":[
					0.18094126880168915,
					0.8001648187637329,
					0.07764017581939697,
					1
				],
				"metallicFactor":0
			}
		},
		{
			"doubleSided":true,
			"name":"Soil",
			"pbrMetallicRoughness":{
				"baseColorTexture":{
					"index":1
				},
				"metallicFactor":0
			}
		},
		{
			"doubleSided":true,
			"emissiveFactor":[
				1,
				1,
				1
			],
			"emissiveTexture":{
				"index":2
			},
			"name":"Rock",
			"pbrMetallicRoughness":{
				"baseColorFactor":[
					0,
					0,
					0,
					1
				]
			}
		},
		{
			"doubleSided":true,
			"emissiveFactor":[
				1,
				1,
				1
			],
			"emissiveTexture":{
				"index":3
			},
			"name":"Sky",
			"pbrMetallicRoughness":{
				"baseColorFactor":[
					0,
					0,
					0,
					1
				]
			}
		}
	],
	"meshes":[
		{
			"name":"B\u00e9zierCurve",
			"primitives":[
				{
					"attributes":{
						"POSITION":0,
						"NORMAL":1,
						"TEXCOORD_0":2
					},
					"indices":3,
					"material":0
				}
			]
		},
		{
			"name":"Cylinder",
			"primitives":[
				{
					"attributes":{
						"POSITION":4,
						"NORMAL":5,
						"TEXCOORD_0":6
					},
					"indices":7,
					"material":1
				}
			]
		},
		{
			"name":"Cube.001",
			"primitives":[
				{
					"attributes":{
						"POSITION":8,
						"NORMAL":9,
						"TEXCOORD_0":10
					},
					"indices":11,
					"material":2
				}
			]
		},
		{
			"name":"Cylinder.001",
			"primitives":[
				{
					"attributes":{
						"POSITION":12,
						"NORMAL":13,
						"TEXCOORD_0":14
					},
					"indices":15,
					"material":3
				}
			]
		},
		{
			"name":"Icosphere",
			"primitives":[
				{
					"attributes":{
						"POSITION":16,
						"NORMAL":17,
						"TEXCOORD_0":18
					},
					"indices":19,
					"material":4
				}
			]
		},
		{
			"name":"Icosphere.001",
			"primitives":[
				{
					"attributes":{
						"POSITION":20,
						"NORMAL":21,
						"TEXCOORD_0":22
					},
					"indices":23,
					"material":4
				}
			]
		},
		{
			"name":"Cube",
			"primitives":[
				{
					"attributes":{
						"POSITION":24,
						"NORMAL":25,
						"TEXCOORD_0":26
					},
					"indices":27,
					"material":5
				}
			]
		},
		{
			"name":"Cube.002",
			"primitives":[
				{
					"attributes":{
						"POSITION":28,
						"NORMAL":29,
						"TEXCOORD_0":30
					},
					"indices":31,
					"material":5
				}
			]
		},
		{
			"name":"Plane.034",
			"primitives":[
				{
					"attributes":{
						"POSITION":32,
						"NORMAL":33,
						"TEXCOORD_0":34
					},
					"indices":35,
					"material":4
				}
			]
		},
		{
			"name":"Cube.003",
			"primitives":[
				{
					"attributes":{
						"POSITION":36,
						"NORMAL":37,
						"TEXCOORD_0":38
					},
					"indices":39,
					"material":6
				}
			]
		},
		{
			"name":"Plane.037",
			"primitives":[
				{
					"attributes":{
						"POSITION":40,
						"NORMAL":41,
						"TEXCOORD_0":42
					},
					"indices":43,
					"material":7
				}
			]
		}
	],
	"textures":[
		{
			"sampler":0,
			"source":0
		},
		{
			"sampler":0,
			"source":1
		},
		{
			"sampler":0,
			"source":2
		},
		{
			"sampler":0,
			"source":3
		}
	],
	"images":[
		{
			"mimeType":"image/jpeg",
			"name":"Chicken",
			"uri":"Chicken.jpg"
		},
		{
			"mimeType":"image/jpeg",
			"name":"Road3",
			"uri":"Road3.jpg"
		},
		{
			"mimeType":"image/jpeg",
			"name":"Rock",
			"uri":"Rock.jpg"
		},
		{
			"mimeType":"image/jpeg",
			"name":"BackgroundCloud",
			"uri":"BackgroundCloud.jpg"
		}
	],
	"accessors":[
		{
			"bufferView":0,
			"componentType":5126,
			"count":59,
			"max":[
				0.4366023540496826,
				0.41530394554138184,
				0.16260825097560883
			],
			"min":[
				-0.4358668029308319,
				-0.39652135968208313,
				-0.1626080572605133
			],
			"type":"VEC3"
		},
		{
			"bufferView":1,
			"componentType":5126,
			"count":59,
			"type":"VEC3"
		},
		{
			"bufferView":2,
			"componentType":5126,
			"count":59,
			"type":"VEC2"
		},
		{
			"bufferView":3,
			"componentType":5123,
			"count":342,
			"type":"SCALAR"
		},
		{
			"bufferView":4,
			"componentType":5126,
			"count":95,
			"max":[
				0.8424032330513,
				0.88946133852005,
				0.2482098788022995
			],
			"min":[
				-0.8441106677055359,
				-0.7306703329086304,
				-0.24811962246894836
			],
			"type":"VEC3"
		},
		{
			"bufferView":5,
			"componentType":5126,
			"count":95,
			"type":"VEC3"
		},
		{
			"bufferView":6,
			"componentType":5126,
			"count":95,
			"type":"VEC2"
		},
		{
			"bufferView":7,
			"componentType":5123,
			"count":354,
			"type":"SCALAR"
		},
		{
			"bufferView":8,
			"componentType":5126,
			"count":3431,
			"max":[
				0.5333331823348999,
				0.5333600640296936,
				0.4283898174762726
			],
			"min":[
				-0.5333330631256104,
				-0.3558393120765686,
				-0.47862064838409424
			],
			"type":"VEC3"
		},
		{
			"bufferView":9,
			"componentType":5126,
			"count":3431,
			"type":"VEC3"
		},
		{
			"bufferView":10,
			"componentType":5126,
			"count":3431,
			"type":"VEC2"
		},
		{
			"bufferView":11,
			"componentType":5123,
			"count":14322,
			"type":"SCALAR"
		},
		{
			"bufferView":12,
			"componentType":5126,
			"count":123,
			"max":[
				0.8387625217437744,
				2.141169548034668,
				0.643933117389679
			],
			"min":[
				-0.33331918716430664,
				-0.19334819912910461,
				-0.5510451197624207
			],
			"type":"VEC3"
		},
		{
			"bufferView":13,
			"componentType":5126,
			"count":123,
			"type":"VEC3"
		},
		{
			"bufferView":14,
			"componentType":5126,
			"count":123,
			"type":"VEC2"
		},
		{
			"bufferView":15,
			"componentType":5123,
			"count":564,
			"type":"SCALAR"
		},
		{
			"bufferView":16,
			"componentType":5126,
			"count":90,
			"max":[
				0.8475615382194519,
				0.9602872729301453,
				0.8316171169281006
			],
			"min":[
				-0.8222981095314026,
				-0.7959886193275452,
				-0.9129396080970764
			],
			"type":"VEC3"
		},
		{
			"bufferView":17,
			"componentType":5126,
			"count":90,
			"type":"VEC3"
		},
		{
			"bufferView":18,
			"componentType":5126,
			"count":90,
			"type":"VEC2"
		},
		{
			"bufferView":19,
			"componentType":5123,
			"count":528,
			"type":"SCALAR"
		},
		{
			"bufferView":20,
			"componentType":5126,
			"count":48,
			"max":[
				0.8491014838218689,
				1.1403911113739014,
				1.0207629203796387
			],
			"min":[
				-1.0360690355300903,
				-0.7805677652359009,
				-0.9521093964576721
			],
			"type":"VEC3"
		},
		{
			"bufferView":21,
			"componentType":5126,
			"count":48,
			"type":"VEC3"
		},
		{
			"bufferView":22,
			"componentType":5126,
			"count":48,
			"type":"VEC2"
		},
		{
			"bufferView":23,
			"componentType":5123,
			"count":276,
			"type":"SCALAR"
		},
		{
			"bufferView":24,
			"componentType":5126,
			"count":171,
			"max":[
				1.5158686637878418,
				0.5277309417724609,
				0.5239798426628113
			],
			"min":[
				-1.5215917825698853,
				-0.5145828723907471,
				-0.5260059237480164
			],
			"type":"VEC3"
		},
		{
			"bufferView":25,
			"componentType":5126,
			"count":171,
			"type":"VEC3"
		},
		{
			"bufferView":26,
			"componentType":5126,
			"count":171,
			"type":"VEC2"
		},
		{
			"bufferView":27,
			"componentType":5123,
			"count":630,
			"type":"SCALAR"
		},
		{
			"bufferView":28,
			"componentType":5126,
			"count":126,
			"max":[
				2.5284500122070312,
				0.5181878209114075,
				0.5280691981315613
			],
			"min":[
				-2.51762056350708,
				-0.5148563385009766,
				-0.5225949883460999
			],
			"type":"VEC3"
		},
		{
			"bufferView":29,
			"componentType":5126,
			"count":126,
			"type":"VEC3"
		},
		{
			"bufferView":30,
			"componentType":5126,
			"count":126,
			"type":"VEC2"
		},
		{
			"bufferView":31,
			"componentType":5123,
			"count":600,
			"type":"SCALAR"
		},
		{
			"bufferView":32,
			"componentType":5126,
			"count":718,
			"max":[
				5.124736309051514,
				1.2788714170455933,
				0.5486577749252319
			],
			"min":[
				-5.093812465667725,
				-0.49177542328834534,
				-0.6618303060531616
			],
			"type":"VEC3"
		},
		{
			"bufferView":33,
			"componentType":5126,
			"count":718,
			"type":"VEC3"
		},
		{
			"bufferView":34,
			"componentType":5126,
			"count":718,
			"type":"VEC2"
		},
		{
			"bufferView":35,
			"componentType":5123,
			"count":1926,
			"type":"SCALAR"
		},
		{
			"bufferView":36,
			"componentType":5126,
			"count":112,
			"max":[
				0.539048433303833,
				0.6597909331321716,
				0.5976718664169312
			],
			"min":[
				-0.6030372381210327,
				-0.49052464962005615,
				-0.39800137281417847
			],
			"type":"VEC3"
		},
		{
			"bufferView":37,
			"componentType":5126,
			"count":112,
			"type":"VEC3"
		},
		{
			"bufferView":38,
			"componentType":5126,
			"count":112,
			"type":"VEC2"
		},
		{
			"bufferView":39,
			"componentType":5123,
			"count":114,
			"type":"SCALAR"
		},
		{
			"bufferView":40,
			"componentType":5126,
			"count":21,
			"max":[
				2.0400004386901855,
				0.39905813336372375,
				1
			],
			"min":[
				-2.0400004386901855,
				-0.4162658452987671,
				-1
			],
			"type":"VEC3"
		},
		{
			"bufferView":41,
			"componentType":5126,
			"count":21,
			"type":"VEC3"
		},
		{
			"bufferView":42,
			"componentType":5126,
			"count":21,
			"type":"VEC2"
		},
		{
			"bufferView":43,
			"componentType":5123,
			"count":72,
			"type":"SCALAR"
		}
	],
	"bufferViews":[
		{
			"buffer":0,
			"byteLength":708,
			"byteOffset":0,
			"target":34962
		},
		{
			"buffer":0,
			"byteLength":708,
			"byteOffset":708,
			"target":34962
		},
		{
			"buffer":0,
			"byteLength":472,
			"byteOffset":1416,
			"target":34962
		},
		{
			"buffer":0,
			"byteLength":684,
			"byteOffset":1888,
			"target":34963
		},
		{
			"buffer":0,
			"byteLength":1140,
			"byteOffset":2572,
			"target":34962
		},
		{
			"buffer":0,
			"byteLength":1140,
			"byteOffset":3712,
			"target":34962
		},
		{
			"buffer":0,
			"byteLength":760,
			"byteOffset":4852,
			"target":34962
		},
		{
			"buffer":0,
			"byteLength":708,
			"byteOffset":5612,
			"target":34963
		},
		{
			"buffer":0,
			"byteLength":41172,
			"byteOffset":6320,
			"target":34962
		},
		{
			"buffer":0,
			"byteLength":41172,
			"byteOffset":47492,
			"target":34962
		},
		{
			"buffer":0,
			"byteLength":27448,
			"byteOffset":88664,
			"target":34962
		},
		{
			"buffer":0,
			"byteLength":28644,
			"byteOffset":116112,
			"target":34963
		},
		{
			"buffer":0,
			"byteLength":1476,
			"byteOffset":144756,
			"target":34962
		},
		{
			"buffer":0,
			"byteLength":1476,
			"byteOffset":146232,
			"target":34962
		},
		{
			"buffer":0,
			"byteLength":984,
			"byteOffset":147708,
			"target":34962
		},
		{
			"buffer":0,
			"byteLength":1128,
			"byteOffset":148692,
			"target":34963
		},
		{
			"buffer":0,
			"byteLength":1080,
			"byteOffset":149820,
			"target":34962
		},
		{
			"buffer":0,
			"byteLength":1080,
			"byteOffset":150900,
			"target":34962
		},
		{
			"buffer":0,
			"byteLength":720,
			"byteOffset":151980,
			"target":34962
		},
		{
			"buffer":0,
			"byteLength":1056,
			"byteOffset":152700,
			"target":34963
		},
		{
			"buffer":0,
			"byteLength":576,
			"byteOffset":153756,
			"target":34962
		},
		{
			"buffer":0,
			"byteLength":576,
			"byteOffset":154332,
			"target":34962
		},
		{
			"buffer":0,
			"byteLength":384,
			"byteOffset":154908,
			"target":34962
		},
		{
			"buffer":0,
			"byteLength":552,
			"byteOffset":155292,
			"target":34963
		},
		{
			"buffer":0,
			"byteLength":2052,
			"byteOffset":155844,
			"target":34962
		},
		{
			"buffer":0,
			"byteLength":2052,
			"byteOffset":157896,
			"target":34962
		},
		{
			"buffer":0,
			"byteLength":1368,
			"byteOffset":159948,
			"target":34962
		},
		{
			"buffer":0,
			"byteLength":1260,
			"byteOffset":161316,
			"target":34963
		},
		{
			"buffer":0,
			"byteLength":1512,
			"byteOffset":162576,
			"target":34962
		},
		{
			"buffer":0,
			"byteLength":1512,
			"byteOffset":164088,
			"target":34962
		},
		{
			"buffer":0,
			"byteLength":1008,
			"byteOffset":165600,
			"target":34962
		},
		{
			"buffer":0,
			"byteLength":1200,
			"byteOffset":166608,
			"target":34963
		},
		{
			"buffer":0,
			"byteLength":8616,
			"byteOffset":167808,
			"target":34962
		},
		{
			"buffer":0,
			"byteLength":8616,
			"byteOffset":176424,
			"target":34962
		},
		{
			"buffer":0,
			"byteLength":5744,
			"byteOffset":185040,
			"target":34962
		},
		{
			"buffer":0,
			"byteLength":3852,
			"byteOffset":190784,
			"target":34963
		},
		{
			"buffer":0,
			"byteLength":1344,
			"byteOffset":194636,
			"target":34962
		},
		{
			"buffer":0,
			"byteLength":1344,
			"byteOffset":195980,
			"target":34962
		},
		{
			"buffer":0,
			"byteLength":896,
			"byteOffset":197324,
			"target":34962
		},
		{
			"buffer":0,
			"byteLength":228,
			"byteOffset":198220,
			"target":34963
		},
		{
			"buffer":0,
			"byteLength":252,
			"byteOffset":198448,
			"target":34962
		},
		{
			"buffer":0,
			"byteLength":252,
			"byteOffset":198700,
			"target":34962
		},
		{
			"buffer":0,
			"byteLength":168,
			"byteOffset":198952,
			"target":34962
		},
		{
			"buffer":0,
			"byteLength":144,
			"byteOffset":199120,
			"target":34963
		}
	],
	"samplers":[
		{
			"magFilter":9729,
			"minFilter":9987
		}
	],
	"buffers":[
		{
			"byteLength":199264,
			"uri":"assets.bin"
		}
	]
}
